<svg xmlns="http://www.w3.org/2000/svg" viewBox="0 0 351.91 315.55"><defs><style>.a{fill:#729d3f;}</style></defs><path class="a" d="M129.68,314.59c-10.87.83-25.36-1-29.11-1.73a116.1,116.1,0,0,1-45.73-19.63c-3.59-2.57-6.84-5.62-10.6-8.75,14.33-15.7,29.08-29.18,47.92-32.41-8.68-4.79-19.6-10-29.63-16.53A125.81,125.81,0,0,1,21.9,192.42c-13.43-23.76-19-58.56-20.68-65.17,3.24-.24,6-.57,8.76-.63,17.11-.4,34.13.56,50.92,4.07,13.67,2.86,26.91,6.91,39,14.11a80.43,80.43,0,0,1,23,21h0c-1-2.38-2-4.89-2.8-7.32-6.28-18.51-5.66-37.28-1.81-56.09a185,185,0,0,1,18.5-50.54,198.69,198.69,0,0,1,37.63-49.5l.74-.66a10.51,10.51,0,0,1,.87.69c7.25,8,14.92,15.77,21.54,24.32C211,44,221.47,63.06,227.37,84.16A232.47,232.47,0,0,1,234.88,123a78.88,78.88,0,0,1-7.13,42.07c-.42.64-.28.44,0,0a79.92,79.92,0,0,1,32-25.36c17.45-7.71,35.86-11.3,54.75-12.84,5-.41,10.1-.87,15.15-.84,7,0,14,.53,21,.83-.11.72-.16.92-.5,2.78-5.27,22.53-12.18,44-23.13,64.44-7.72,14.44-18.42,26.24-31.31,36.15-11.81,9.07-24.54,16.45-39.21,21,2,.34,3.67.5,5.26.93,17.72,4.74,31.05,16.07,43.16,29.13.49.54,2,2.57,2,2.57s-5.22,4.89-7.5,6.44c-16.8,12.41-35.41,20.85-56.29,23.14-15,1.88-27.47,1.72-42.29-2.72-8.76-2.54-17.18-6.26-25.43-9.33-8.18,3.17-16.36,6.82-24.86,9.48A106.64,106.64,0,0,1,129.68,314.59Zm24-13.57c7.46-2.26,14.66-5.35,21.85-8,7.27,2.55,14.69,5.66,22.41,7.76a101.59,101.59,0,0,0,37.7,3.27c18.37-2,34.26-10.23,49-20.7,2-1.31,6.59-5.43,6.59-5.43s-1.31-1.71-1.75-2.15c-10.69-10.94-21.85-17.62-37.47-21.56-1.4-.35-6-1.18-7.75-1.47,12.54-6.64,26.61-12.22,37-19.88,11.33-8.36,20.71-18.3,27.46-30.46,9.58-17.23,15.61-35.25,20.18-54.19.3-1.57.34-1.73.43-2.34-6.15-.23-12.31-.62-18.47-.63-4.44,0-8.89.39-13.33.75-16.62,1.35-32.81,4.42-48.15,10.94a70,70,0,0,0-28.13,21.39c-.24.38-.37.54,0,0a63.59,63.59,0,0,0,6.17-35.35,188.78,188.78,0,0,0-6.72-32.59c-5.26-17.7-7.87-23.6-17.42-39.67-5.22-8.77-19.13-24-26.1-31.34-.12-.13-.76-.58-.76-.58l-.65.56A188.28,188.28,0,0,0,140.83,83.5,150.76,150.76,0,0,0,124.69,126c-3.34,15.81-3.83,31.58,1.74,47.1.74,2,1.63,4.15,2.49,6.14h0a69.72,69.72,0,0,0-20.29-17.6c-10.67-6-22.34-9.38-34.38-11.74a204.64,204.64,0,0,0-44.83-3.27c-2.43.06-4.86.34-7.71.56,1.48,5.54,6.49,34.76,18.38,54.68A108,108,0,0,0,76,238c8.85,5.48,19.29,10.67,26.48,16.39C85.88,257.12,72.58,265.91,60,279.14c3.31,2.61,6.18,5.17,9.35,7.31,12.18,8.23,25.85,15.53,40.54,18a109.15,109.15,0,0,0,24.67.71C140.08,304.78,148.43,302.6,153.65,301Z"/></svg>