<svg xmlns="http://www.w3.org/2000/svg" viewBox="0 0 476.66 419.16"><defs><style>.a{fill:#71bf4a;}.b{fill:#729d3f;}.c{fill:#2e5b18;}.d{fill:#fff;}</style></defs><path class="a" d="M238.45,362.12c50.49-85.94,88.81-253.83,0-299.07-1.07-.55-1.23.4-1.72.88a198.58,198.58,0,0,0-34.13,43.61,191.55,191.55,0,0,0-17,37.12,172.34,172.34,0,0,0-6.54,30.74,115.87,115.87,0,0,0-.12,27.29A77.43,77.43,0,0,0,185.7,227c.14.23-.62-.44-.87-.72-2.41-2.81-4.65-5.78-7.24-8.41-9.36-9.57-24-19.05-36.57-23.38-24.8-8.54-47.13-7.52-73.13-6.28-1.36.06-5.09-1.67-3.39,2.64,3.1,13.57,6.67,27.29,11.59,40.32a143.26,143.26,0,0,0,21.54,40.48c2.5,3.16,4.57,6.2,7.75,9.11.08.07,8.63,7.65,13,11.16,3.85,3.09,8,5.85,11.94,8.75,2.81,1.58,5.6,3.2,8.44,4.7a100.78,100.78,0,0,0,18.65,7.85c-1.75.28-3.47.4-5.11.83-17.56,4.62-30.62,15.93-42.62,28.82-3.79,4.86-6.3,1.18.1,5.56a111.85,111.85,0,0,0,35.8,20.9l9.2,3.34h.71a2.14,2.14,0,0,0,.62.35,136.26,136.26,0,0,0,38.55,3,93.27,93.27,0,0,0,26.18-5.76A132.73,132.73,0,0,0,236.77,363C237.33,362.7,238.13,362.67,238.45,362.12Z"/><path class="b" d="M104.9,280.24c-22.33-24.62-32.79-56.92-39.43-88.86-1-4.65-2.16-3,2.42-3.21C109.5,186.72,144,186.45,178,218.35c2.43,2.29,8.7,10.15,8.7,10.15-23.33-52.67,10.94-130.38,51.74-165.45-.15-13.93,4.86-10,4.81-23.93,0-6.06-4.85-30-5.05-36.06-25.65,25.41-47.08,55.59-59.11,89.84-11.23,32.28-17.78,68.63-4.7,101.34-17.11-23.94-45.95-34.78-73.79-40.7l-.06,0c-22.23-4-44.78-5.84-67-4.16-6.75-1.69-2.3-3.2-1.69,1.58,2.62,16.31,13.44,50,17.46,59,8.91,26.45,12.33,24.36,19.26,36,1.26,2.26,15,18.12,19.29,22A85.32,85.32,0,0,0,104.9,280.24Z"/><path class="c" d="M155.25,372.63c-1.67-.06-3.33-.32-5-.46-3.17,8-8,41.05-1.48,46.06l1.33-.11c35.43-3.37,69.68-25.79,88.35-56-24.86,13.14-55.76,17.26-83,10.52Z"/><path class="c" d="M102.73,279c-38.36.24-70.28,30.38-95,57-1.89,2.12-3.22,3.54-5.13,5.6-2.82,3.06-1.56,1.3,1.93,3.15,22,11.66,44.75,22.47,69,28.18,20.33,4.46,41.82,1.72,61.59-4.16-.06-.4-.26-.49-.68-.62A138.73,138.73,0,0,1,113.81,360c0,.1-.08.19.12-.26-.3.38-.24.3-.17.22A143.82,143.82,0,0,1,92.66,347c-2.15-2.05-13.11-8.46-9.88-11.56,12.65-15.05,28.86-28.17,47.54-34.85a227.23,227.23,0,0,1-24.69-19.72A10.34,10.34,0,0,0,102.73,279Z"/><path class="c" d="M76.58,255.48c-24.66-29.31-35.4-65.32-44.7-104.57-.52-3.8-2.21-1.85,1.69-1.58,22.19-1.69,44.74.17,67,4.16,0-.09.09-.19-.11.26l.17-.21c23.39,5,55.5,15.15,73.5,40.39a.93.93,0,0,0,.28.25s-2.31-7.23-2.76-7.85c-11.35-15.63-22.21-27.17-40.47-37.85C103.9,132.54,58.84,127.68,27.3,128.7,28.93,175.65,48,224.55,76.58,255.48Z"/><path class="b" d="M124.75,365.28c4.95,2.26,16,5.3,22.15,6.48a74.15,74.15,0,0,0,8.64.87c-3.07-1.12-6.9-2.22-10-3.34a111.85,111.85,0,0,1-35.8-20.9c-4.92-3.64-4.2-.58.09-5.46,12-12.9,24.87-24.3,42.43-28.92,1.64-.43,3.36-.55,5.11-.83a100.78,100.78,0,0,1-18.65-7.85c-2.84-1.5-5.63-3.12-8.44-4.7a83.48,83.48,0,0,0-18.48,9.08c-6.58,4.18-11.56,7.5-17.26,12.8a123.74,123.74,0,0,0-11.8,13c-3.84,4.13-5.42.92,1.43,5.62,2.77,2,5.67,3.83,8.45,5.94,8,6.32,13.94,9.27,20.83,13C117.07,362,121.07,363.6,124.75,365.28Z"/><path class="c" d="M118.84,144.44l.16-.2-.31,0A1.19,1.19,0,0,0,118.84,144.44Z"/><path class="b" d="M185.7,227c.05.26.11.52,0,0,.3.48.15.24,0,0Z"/><path class="b" d="M105.38,280.72l.25.19Z"/><path class="b" d="M155.25,372.63h0Z"/><path class="b" d="M113.76,359.91c-.07.08-.13.16.17-.22-.2.45-.16.36-.12.26Z"/><path class="b" d="M100.6,153.54l-.17.21c.2-.45.16-.35.11-.26Z"/><polygon class="d" points="238.55 362.27 238.3 362.38 238.45 362.12 238.46 362.1 238.55 362.27"/><path class="a" d="M220.84,370.27A132.73,132.73,0,0,0,236.77,363c.56-.31,1.12-.58,1.68-.89q0-149.51,0-299.07"/><path class="c" d="M150.11,418.12c35.43-3.37,69.68-25.79,88.35-56-24.86,13.14-55.76,17.26-83,10.52"/><polygon class="d" points="238.55 362.27 238.3 362.38 238.45 362.12 238.46 362.1 238.55 362.27"/><path class="a" d="M238.43,362.14c-50.49-85.94-75.46-224.29,0-299.09.86-.85,1.23.4,1.72.88a198.93,198.93,0,0,1,34.14,43.61,192.11,192.11,0,0,1,17,37.12,172.36,172.36,0,0,1,6.55,30.74,115.87,115.87,0,0,1,.11,27.29A77.16,77.16,0,0,1,291.18,227c-.14.23.63-.44.87-.72,2.41-2.81,4.66-5.78,7.24-8.41,9.37-9.57,24-19.05,36.57-23.38,24.8-8.54,47.14-7.52,73.14-6.28,1.35.06,5.09-1.67,3.38,2.64-3.1,13.57-6.67,27.29-11.58,40.32a143.54,143.54,0,0,1-21.55,40.48c-2.49,3.16-4.56,6.2-7.75,9.11-.08.07-8.62,7.65-13,11.16-3.85,3.09-8,5.85-11.95,8.75-2.81,1.58-5.59,3.2-8.44,4.7a100.49,100.49,0,0,1-18.65,7.85c1.75.28,3.47.4,5.11.83,17.57,4.62,30.62,15.93,42.63,28.82,3.79,4.86,6.29,1.18-.11,5.56a111.74,111.74,0,0,1-35.8,20.9l-9.19,3.34h-.72a2.09,2.09,0,0,1-.61.35,136.26,136.26,0,0,1-38.55,3A93.26,93.26,0,0,1,256,370.27,133.31,133.31,0,0,1,240.12,363C239.56,362.7,238.75,362.69,238.43,362.14Z"/><path class="b" d="M372,280.24c22.33-24.62,32.79-56.92,39.43-88.86,1-4.65,2.16-3-2.41-3.21-41.61-1.45-76.13-1.72-110.11,30.18-2.44,2.29-8.71,10.15-8.71,10.15,23.33-52.67-10.93-130.38-51.74-165.45.22-20-.42-40.08.24-60,25.65,25.41,47.08,55.59,59.11,89.84,11.24,32.28,17.78,68.63,4.7,101.34,17.12-23.94,45.95-34.78,73.79-40.7l.06,0c22.24-4,44.78-5.84,67-4.16,6.74-1.69,2.3-3.2,1.69,1.58-2.63,16.31-13.45,50-17.47,59-8.91,26.45-12.33,24.36-19.26,36-1.26,2.26-15,18.12-19.29,22A85,85,0,0,1,372,280.24Z"/><path class="c" d="M321.64,372.63c1.66-.06,3.32-.32,5-.46,3.17,8,8,41.05,1.49,46.06l-1.34-.11c-35.43-3.37-69.66-25.76-88.34-56,24.86,13.14,55.75,17.23,83,10.49Z"/><path class="c" d="M374.15,279c38.37.24,70.28,30.38,95,57,1.89,2.12,3.23,3.54,5.13,5.6,2.82,3.06,1.56,1.3-1.93,3.15-22,11.66-44.75,22.47-69,28.18-20.33,4.46-41.82,1.72-61.59-4.16.06-.4.26-.49.68-.62A138.73,138.73,0,0,0,363.07,360c0,.1.09.19-.12-.26l.18.22A144.88,144.88,0,0,0,384.23,347c2.14-2.05,13.11-8.46,9.88-11.56-12.66-15.05-28.87-28.17-47.55-34.85a228.31,228.31,0,0,0,24.7-19.72A10.39,10.39,0,0,1,374.15,279Z"/><path class="c" d="M400.3,255.48C425,226.17,435.71,190.16,445,150.91c.52-3.8,2.21-1.85-1.69-1.58-22.2-1.69-44.75.17-67,4.16,0-.09-.09-.19.11.26l-.17-.21c-23.39,5-55.49,15.15-73.5,40.39a.81.81,0,0,1-.28.25s2.31-7.23,2.76-7.85c11.35-15.63,22.22-27.17,40.48-37.85,27.25-15.94,72.31-20.8,103.85-19.78C448,175.65,428.89,224.55,400.3,255.48Z"/><path class="b" d="M352.13,365.28c-4.95,2.26-16,5.3-22.14,6.48a74.54,74.54,0,0,1-8.65.87c3.07-1.12,6.9-2.22,10-3.34a111.74,111.74,0,0,0,35.8-20.9c4.93-3.64,4.2-.58-.08-5.46-12-12.9-24.87-24.3-42.44-28.92-1.64-.43-3.36-.55-5.11-.83a100.49,100.49,0,0,0,18.65-7.85c2.85-1.5,5.63-3.12,8.44-4.7a83.55,83.55,0,0,1,18.49,9.08c6.57,4.18,11.55,7.5,17.25,12.8a125,125,0,0,1,11.81,13c3.83,4.13,5.42.92-1.44,5.62-2.76,2-5.66,3.83-8.44,5.94-8,6.32-13.94,9.27-20.84,13C359.82,362,355.82,363.6,352.13,365.28Z"/><path class="c" d="M358.05,144.44l-.16-.2.31,0Z"/><path class="b" d="M291.19,227c-.06.26-.12.52,0,0-.29.48-.15.24,0,0Z"/><path class="b" d="M371.5,280.72l-.24.19Z"/><path class="b" d="M321.64,372.63h0Z"/><path class="b" d="M363.13,359.91l-.18-.22c.21.45.16.36.12.26Z"/><path class="b" d="M376.28,153.54l.17.21c-.2-.45-.15-.35-.11-.26Z"/><path class="d" d="M238.22,362.51h.43l-.13-.22-.08-.14,0,0-.08.19Z"/><polygon class="b" points="243.36 7.8 237.94 26.51 233.55 7.77 238.45 2.36 243.36 7.8"/><path class="b" d="M238.52,63c7.72,0,7.73-12,0-12s-7.73,12,0,12Z"/></svg>