<svg xmlns="http://www.w3.org/2000/svg" viewBox="0 0 358.17 319.08"><defs><style>.a{fill:#729d3f;}</style></defs><path class="a" d="M178.63,301.24c-8.19,3.18-16.37,6.82-24.86,9.48a106.14,106.14,0,0,1-20.86,3.69c-10.86.84-25.36-1-29.11-1.72a115.87,115.87,0,0,1-45.72-19.64c-3.6-2.56-6.85-5.62-10.61-8.74,14.33-15.7,29.08-29.19,47.92-32.41-8.68-4.79-19.6-10-29.63-16.54a125.87,125.87,0,0,1-40.63-43.11c-13.43-23.77-19-58.57-20.68-65.17,3.24-.24,6-.57,8.76-.64,17.11-.4,34.13.57,50.92,4.08,13.67,2.85,26.91,6.9,39,14.11a80.43,80.43,0,0,1,23,21h0c-1-2.38-2-4.89-2.81-7.32-6.27-18.5-5.66-37.27-1.81-56.08A184.44,184.44,0,0,1,140,51.72a198,198,0,0,1,37.63-49.5c.12-.13.73-.67.73-.67l.75.68"/><path class="a" d="M178.16,301.24c8.18,3.18,16.37,6.82,24.86,9.48a105.91,105.91,0,0,0,20.85,3.69c10.87.84,25.36-1,29.11-1.72a116,116,0,0,0,45.73-19.64c3.6-2.56,6.84-5.62,10.6-8.74-14.33-15.7-29.08-29.19-47.92-32.41,8.69-4.79,19.6-10,29.64-16.54a125.84,125.84,0,0,0,40.62-43.11c13.44-23.77,19-58.57,20.69-65.17-3.24-.24-6-.57-8.77-.64-17.11-.4-34.12.57-50.92,4.08-13.66,2.85-26.91,6.9-39,14.11a80.53,80.53,0,0,0-23,21h0c1-2.38,2-4.89,2.8-7.32,6.28-18.5,5.66-37.27,1.81-56.08a184.42,184.42,0,0,0-18.5-50.54,198.51,198.51,0,0,0-37.63-49.5c-.13-.13-.74-.67-.74-.67s-.47.41-.71.64"/></svg>