<svg xmlns="http://www.w3.org/2000/svg" viewBox="0 0 480.23 368.46"><defs><style>.a{fill:#729d3f;}.b{fill:#71bf4a;}</style></defs><path class="a" d="M243.75,296.38a89.39,89.39,0,0,1-14.69,25.07c-4.36,5.23-9.34,9.95-14.1,14.84A78.17,78.17,0,0,1,199.77,348a142.27,142.27,0,0,1-16.31,8.23,97.81,97.81,0,0,1-21.86,6.95c-3.43.67-10.86,1.79-12.16,1.85-3.53.15-2,1.46-2.11-5.78a118.48,118.48,0,0,1-.35-14.48A91.55,91.55,0,0,1,150.8,320a55.61,55.61,0,0,1,6.48-13.56c-.82.52-1.19.81-1.6,1a131.13,131.13,0,0,1-27.55,10.19,138.23,138.23,0,0,1-22.2,3.76,102,102,0,0,1-23.48-.52,142.21,142.21,0,0,1-23-5.42,231.72,231.72,0,0,1-22.91-8.81c-9.11-4.08-18.91-8.42-27.71-13.17C.4,288,.73,291.6,6,285.59A255.27,255.27,0,0,1,36.41,255.4a140.88,140.88,0,0,1,20.91-14.74C62.78,237.6,68.2,234.31,74,232c12.3-4.94,25.11-7.49,38.54-5.92a66.39,66.39,0,0,1-20.59-10.77A111.71,111.71,0,0,1,68.4,192.06C64,186,59.76,179.73,55.81,173.28a175.48,175.48,0,0,1-12.33-24.93,176.94,176.94,0,0,1-7.54-23.09,222.17,222.17,0,0,1-5.23-26.73c-.8-6.16-1-12.4-1.46-18.61-.36-5.25-1.61-3.74,2-3.73,2.82-.16,5.64-.5,8.45-.46,6.19.08,12.39.1,18.56.6a158.6,158.6,0,0,1,19,2.43c8.71,1.77,17.35,3.94,25.9,6.37a156.65,156.65,0,0,1,32.38,13.81c6.14,3.49,12.38,7,18,11.24,9.06,6.92,17.4,14.67,23.87,24.27a111.32,111.32,0,0,1,7.94,14.66A78.09,78.09,0,0,1,184,126.83a72.4,72.4,0,0,1,4.29-19.3A161,161,0,0,1,206.12,72.8a252.42,252.42,0,0,1,16.66-22c3.41-4.07,7.09-7.91,10.78-11.73,2.3-2.38,4.86-4.52,7.41-6.86,2.66,4.11,5,7.71,7.3,11.3"/><path class="b" d="M266,309.56c-8.81-2.13-17.16-6.19-25.74-9.38-5.91,2.5-12,5.75-18.54,7.7-8,2.37-16.11,4.53-24.4,5.41-6.67.71-20.45-.22-20.62-.23-19.24-1.3-36.66-7.94-52.7-18.31-5-3.24-9.53-7.24-14.66-11.19,14.48-15.88,29.22-29.34,49.16-32.78-5.67-2.65-12.68-5.42-19.22-9.06-16.41-9.14-30.85-20.76-41.7-36.31C85.26,187.81,78.09,167.87,72,147.52c-2.08-6.94-3.71-14-5.58-21.19,1.17-.09,1.45-.09,1.9-.09,8.46-.1,16.94-.63,25.38-.38,29.15.88,40.25,2,64.33,12.74,12.2,5.69,22.45,15.9,30.07,26.09.17.24.2.32,0,.05-2.48-10.7-6-21.45-7.13-32.3C179.25,114.82,183.38,97.65,189,81A195.28,195.28,0,0,1,239.58,1.33l.9-.86s.67.76.8.89c3.46,3.51,6.91,7,10.24,10.68"/><path class="a" d="M232.65,43.55c2.33-3.59,4.64-7.19,7.29-11.3,2.55,2.34,5.11,4.48,7.42,6.86,3.69,3.82,7.37,7.66,10.77,11.73a250.54,250.54,0,0,1,16.67,22,161,161,0,0,1,17.86,34.73,72.79,72.79,0,0,1,4.29,19.3,77.75,77.75,0,0,1-1.28,22.28,112.5,112.5,0,0,1,7.94-14.66c6.48-9.6,14.81-17.35,23.88-24.27,5.59-4.28,11.83-7.75,18-11.24a156.65,156.65,0,0,1,32.38-13.81c8.54-2.43,17.19-4.6,25.9-6.37a158.08,158.08,0,0,1,18.95-2.43c6.16-.5,12.37-.52,18.56-.6,2.81,0,5.63.3,8.45.46,3.57,0,2.32-1.52,2,3.73-.43,6.21-.66,12.45-1.47,18.61A222.13,222.13,0,0,1,445,125.26a177,177,0,0,1-7.55,23.09,174.37,174.37,0,0,1-12.32,24.93c-3.95,6.45-8.15,12.68-12.59,18.78A111.71,111.71,0,0,1,389,215.29a66.33,66.33,0,0,1-20.6,10.77c13.44-1.57,26.24,1,38.55,5.92,5.78,2.33,11.2,5.62,16.67,8.68a140.88,140.88,0,0,1,20.91,14.74A255.27,255.27,0,0,1,475,285.59c5.23,6,5.57,2.44-2.91,7.85-8.79,4.75-18.59,9.09-27.71,13.17a229.82,229.82,0,0,1-22.91,8.81,142,142,0,0,1-23,5.42,101.91,101.91,0,0,1-23.47.52,138.35,138.35,0,0,1-22.21-3.76,131,131,0,0,1-27.54-10.19c-.41-.21-.79-.5-1.6-1A55.57,55.57,0,0,1,330.11,320a91.17,91.17,0,0,1,3.83,24.81,120.51,120.51,0,0,1-.35,14.48c-.08,7.24,1.41,5.93-2.11,5.78-1.3-.06-8.74-1.18-12.16-1.85a98.06,98.06,0,0,1-21.87-6.95,143,143,0,0,1-16.3-8.23,78.53,78.53,0,0,1-15.2-11.7c-4.75-4.89-9.73-9.61-14.1-14.84a89.6,89.6,0,0,1-14.68-25.07"/><path class="b" d="M215,309.56c8.81-2.13,17.16-6.19,25.74-9.38,5.9,2.5,12,5.75,18.54,7.7,8,2.37,16.11,4.53,24.4,5.41,6.67.71,20.45-.22,20.62-.23,19.23-1.3,36.65-7.94,52.7-18.31,5-3.24,9.53-7.24,14.66-11.19-14.48-15.88-29.23-29.34-49.16-32.78,5.67-2.65,12.68-5.42,19.21-9.06,16.42-9.14,30.86-20.76,41.71-36.31,12.27-17.6,19.45-37.54,25.55-57.89,2.08-6.94,3.7-14,5.58-21.19-1.18-.09-1.45-.09-1.9-.09-8.46-.1-16.94-.63-25.38-.38-29.15.88-40.25,2-64.33,12.74-12.2,5.69-22.46,15.9-30.08,26.09-.16.24-.2.32,0,.05,2.49-10.7,6.06-21.45,7.13-32.3,1.75-17.62-2.37-34.79-7.94-51.45A195.2,195.2,0,0,0,241.33,1.33l-.9-.86s-.66.76-.79.89c-3.47,3.51-6.92,7-10.24,10.68"/><path class="a" d="M243.83,296.38a89.6,89.6,0,0,1-14.68,25.07c-4.37,5.23-9.34,9.95-14.1,14.84a78.53,78.53,0,0,1-15.2,11.7,143,143,0,0,1-16.3,8.23,97.73,97.73,0,0,1-21.87,6.95c-3.42.67-10.86,1.79-12.16,1.85-3.52.15-2,1.46-2.11-5.78a120.51,120.51,0,0,1-.35-14.48A91.17,91.17,0,0,1,150.89,320a55.57,55.57,0,0,1,6.47-13.56c-.81.52-1.19.81-1.6,1a130.84,130.84,0,0,1-27.54,10.19A138.35,138.35,0,0,1,106,321.36a101.91,101.91,0,0,1-23.47-.52,142,142,0,0,1-23-5.42,230.77,230.77,0,0,1-22.91-8.81c-9.12-4.08-18.92-8.42-27.71-13.17C.48,288,.82,291.6,6.05,285.59A255.27,255.27,0,0,1,36.49,255.4,140.88,140.88,0,0,1,57.4,240.66c5.47-3.06,10.89-6.35,16.67-8.68,12.31-4.94,25.12-7.49,38.55-5.92A66.44,66.44,0,0,1,92,215.29a111.71,111.71,0,0,1-23.54-23.23C64,186,59.84,179.73,55.89,173.28a174.37,174.37,0,0,1-12.32-24.93A177,177,0,0,1,36,125.26,222.13,222.13,0,0,1,30.8,98.53c-.81-6.16-1-12.4-1.47-18.61-.36-5.25-1.61-3.74,2-3.73,2.81-.16,5.63-.5,8.44-.46,6.19.08,12.4.1,18.56.6a158.08,158.08,0,0,1,19,2.43c8.71,1.77,17.36,3.94,25.9,6.37a148.37,148.37,0,0,1,17,6.19,149.89,149.89,0,0,1,15.34,7.62c6.14,3.49,12.38,7,18,11.24,9.07,6.92,17.4,14.67,23.88,24.27a112.5,112.5,0,0,1,7.94,14.66,77.73,77.73,0,0,1-1.27-22.28,72.39,72.39,0,0,1,4.28-19.3A161,161,0,0,1,206.2,72.8a250.54,250.54,0,0,1,16.67-22c3.4-4.07,7.08-7.91,10.77-11.73,2.31-2.38,4.87-4.52,7.42-6.86,2.65,4.11,5,7.71,7.29,11.3"/><path class="b" d="M266,309.56c-8.81-2.13-17.16-6.19-25.74-9.38-5.9,2.5-12,5.75-18.54,7.7-8,2.37-16.11,4.53-24.4,5.41-6.67.71-20.45-.22-20.62-.23-19.23-1.3-36.65-7.94-52.7-18.31-5-3.24-9.52-7.24-14.66-11.19,14.48-15.88,29.23-29.34,49.17-32.78-5.68-2.65-12.69-5.42-19.22-9.06-16.42-9.14-30.86-20.76-41.7-36.31-12.28-17.6-19.45-37.54-25.56-57.89-2.08-6.94-3.7-14-5.58-21.19,1.18-.09,1.45-.09,1.9-.09,8.46-.1,17-.63,25.38-.38,29.15.88,40.25,2,64.33,12.74,12.2,5.69,22.46,15.9,30.08,26.09.16.24.2.32,0,.05-2.49-10.7-6.06-21.45-7.13-32.3C179.34,114.82,183.46,97.65,189,81A195.2,195.2,0,0,1,239.67,1.33l.9-.86s.66.76.79.89c3.47,3.51,6.92,7,10.24,10.68"/></svg>