<svg xmlns="http://www.w3.org/2000/svg" viewBox="0 0 477.12 424.46"><defs><style>.a{fill:#71bf4a;}.b{fill:#729d3f;}.c{fill:#2e5b18;}</style></defs><path class="a" d="M237.54,365.71v-299c.8-.14,1.23.41,1.72.88a198.63,198.63,0,0,1,34.14,43.61,192.38,192.38,0,0,1,17,37.12A172.36,172.36,0,0,1,296.94,179a115.87,115.87,0,0,1,.11,27.29,77.34,77.34,0,0,1-6.76,24.27c-.15.24.62-.44.86-.72,2.41-2.81,4.66-5.77,7.24-8.41,9.37-9.57,24-19.05,36.57-23.38,24.8-8.54,47.14-7.52,73.14-6.28,1.36.06,5.09-1.67,3.38,2.64a302.74,302.74,0,0,1-11.9,39.93c-5.45,14.46-11.85,28.43-21.3,40.8-2.28,3-7.68,9.18-7.68,9.18s-8.62,7.66-13,11.16c-3.85,3.09-7.95,5.85-11.95,8.76-2.81,1.57-5.59,3.19-8.44,4.7a101,101,0,0,1-18.64,7.84c1.74.28,3.46.4,5.1.83,17.57,4.62,30.62,15.93,42.63,28.83,3.79,4.85,6.29,1.17-.11,5.55a111.56,111.56,0,0,1-35.8,20.9c-3,1.13-6.12,2.23-9.19,3.34h-.71a2.28,2.28,0,0,1-.62.35,136.26,136.26,0,0,1-38.55,3.05,93.41,93.41,0,0,1-26.19-5.76c-5.66-2.25-10.32-4.85-15.92-7.26Z"/><path class="b" d="M371.08,283.87c22.34-24.62,32.54-57,39.44-88.86.72-4,2.15-3-2.42-3.21C366.49,190.35,332,190.08,298,222c-2.44,2.29-8.7,10.15-8.7,10.15,23.33-52.67-10.94-130.38-51.75-165.45.22-20-.42-40.08.24-60,25.66,25.41,47.09,55.6,59.12,89.84,11.23,32.28,17.77,68.63,4.7,101.34,17.11-23.94,45.94-34.78,73.79-40.7l.05,0c22.24-4,44.78-5.84,67-4.16,6.75-1.69,2.3-3.2,1.69,1.58-2.62,16.31-14,50.07-18,59.09-8.91,26.45-11.76,24.25-18.69,35.84-1.26,2.26-15.26,17.88-19.29,22A157.46,157.46,0,0,1,371.08,283.87Z"/><path class="c" d="M320.74,376.26c1.67-.06,3.32-.32,5-.46,3.18,8,8,41.05,1.49,46.06l-1.33-.11c-35.44-3.37-68-24.89-86.66-55.11a115.3,115.3,0,0,0,81.28,9.62Z"/><path class="c" d="M373.25,282.63c38.37.24,70.8,29.64,95.51,56.24,1.9,2.12,2.72,4.28,4.62,6.34,2.83,3.06,1.56,1.3-1.92,3.15-22,11.66-44.76,22.48-69,28.19-20.33,4.45-41.81,1.71-61.59-4.17.06-.39.26-.49.68-.62a113.66,113.66,0,0,0,20.62-8.18l-.12-.26.18.22a144,144,0,0,0,21.1-12.87c2.14-2.05,13.11-8.46,9.88-11.56-12.66-15.05-28.87-28.17-47.55-34.84a229.63,229.63,0,0,0,24.7-19.73A10.63,10.63,0,0,1,373.25,282.63Z"/><path class="c" d="M399.4,259.11c24.67-29.31,35.41-65.32,44.71-104.57.52-3.8,2.21-1.84-1.69-1.58-22.19-1.69-44.75.17-67,4.16l.12.26-.17-.21c-27.84,5.92-56.68,16.76-73.79,40.7,2.25-5.11,3.37-10.52,5-15.77,13.77-15.42,32.08-25.89,50.7-34.21,29-12.37,59.85-16.58,91.39-15.55C447.06,179.28,428,228.18,399.4,259.11Z"/><path class="b" d="M362.17,363.58c-3.69,1.7-7.32,3.52-11.08,5-3.1,1.25-6.34,2.16-9.54,3.14-.42.13-.62.23-.68.62-2.49.4-12.51,3-15.15,3.42-1.49.22-3.73.41-5.27.46,3.06-1.11,6.9-2.21,9.95-3.34A111.56,111.56,0,0,0,366.2,352c4.93-3.64,4.4-.67.11-5.55-12-12.9-25.06-24.21-42.63-28.83-1.64-.43-3.36-.55-5.1-.83A101,101,0,0,0,337.22,309c2.85-1.51,5.63-3.13,8.44-4.7a83.08,83.08,0,0,1,18.49,9.07c6.57,4.18,12.45,9.26,18.34,14.35a87,87,0,0,1,10.72,11.42c3.83,4.14,5.42.92-1.43,5.62-2.77,2-5.67,3.83-8.45,5.94-3.5,2.66-7.22,5-10.94,7.33-3.29,2.07-6.81,3.63-10.16,5.54Z"/><path class="c" d="M357.15,148.07l-.16-.2.31,0Z"/><path class="b" d="M290.29,230.6c-.06.26-.12.53,0,0-.29.48-.15.25,0,0Z"/><path class="b" d="M370.6,284.35l-.24.19Z"/><path class="b" d="M320.74,376.26h0Z"/><path class="b" d="M362.23,363.54l-.18-.22.12.26Z"/><path class="b" d="M375.39,157.17l.17.21-.12-.26Z"/><path class="a" d="M238,365.71v-299c-.79-.14-1.23.41-1.72.88a198.58,198.58,0,0,0-34.13,43.61,191.82,191.82,0,0,0-17,37.12A172.34,172.34,0,0,0,178.63,179a115.87,115.87,0,0,0-.12,27.29,77.36,77.36,0,0,0,6.77,24.27c.14.24-.62-.44-.86-.72-2.42-2.81-4.66-5.77-7.25-8.41-9.36-9.57-24-19.05-36.57-23.38-24.8-8.54-47.13-7.52-73.13-6.28-1.36.06-5.09-1.67-3.39,2.64A305.8,305.8,0,0,0,76,234.37c5.46,14.46,11.86,28.43,21.3,40.8,2.29,3,7.68,9.18,7.68,9.18s8.63,7.66,13,11.16c3.85,3.09,8,5.85,11.94,8.76,2.81,1.57,5.6,3.19,8.44,4.7A101.42,101.42,0,0,0,157,316.81c-1.75.28-3.47.4-5.1.83-17.57,4.62-30.63,15.93-42.63,28.83-3.79,4.85-6.3,1.17.1,5.55a111.66,111.66,0,0,0,35.8,20.9c3.06,1.13,6.13,2.23,9.2,3.34h.71a2.28,2.28,0,0,0,.62.35,136.26,136.26,0,0,0,38.55,3.05,93.41,93.41,0,0,0,26.19-5.76c5.66-2.25,10.32-4.85,15.92-7.26Z"/><path class="b" d="M104.48,283.87c-22.33-24.62-32.54-57-39.43-88.86-.72-4-2.16-3,2.42-3.21,41.61-1.45,76.13-1.72,110.11,30.18,2.44,2.29,8.7,10.15,8.7,10.15C163,179.46,197.22,101.75,238,66.68c-.21-20,.43-40.08-.24-60-25.65,25.41-47.08,55.6-59.11,89.84-11.23,32.28-17.78,68.63-4.7,101.34-17.11-23.94-45.95-34.78-73.79-40.7l-.06,0c-22.23-4-44.77-5.84-67-4.16-6.75-1.69-2.3-3.2-1.69,1.58,2.62,16.31,14,50.07,18,59.09,8.91,26.45,11.75,24.25,18.68,35.84,1.26,2.26,15.26,17.88,19.29,22A159.76,159.76,0,0,0,104.48,283.87Z"/><path class="c" d="M154.83,376.26c-1.67-.06-3.33-.32-5-.46-3.17,8-8,41.05-1.48,46.06l1.33-.11c35.44-3.37,68-24.89,86.66-55.11a115.31,115.31,0,0,1-81.28,9.62Z"/><path class="c" d="M102.31,282.63C64,282.87,31.52,312.27,6.8,338.87c-1.89,2.12-2.71,4.28-4.62,6.34-2.82,3.06-1.56,1.3,1.93,3.15,22,11.66,44.75,22.48,69,28.19,20.32,4.45,41.81,1.71,61.58-4.17-.06-.39-.26-.49-.68-.62a114,114,0,0,1-20.62-8.18c0,.1-.08.19.13-.26l-.18.22a143.49,143.49,0,0,1-21.1-12.87c-2.14-2.05-13.11-8.46-9.88-11.56,12.66-15.05,28.86-28.17,47.54-34.84a228.53,228.53,0,0,1-24.69-19.73A10.58,10.58,0,0,0,102.31,282.63Z"/><path class="c" d="M76.17,259.11C51.5,229.8,40.76,193.79,31.46,154.54c-.52-3.8-2.21-1.84,1.69-1.58,22.19-1.69,44.74.17,67,4.16l-.12.26.17-.21c27.84,5.92,56.68,16.76,73.79,40.7-2.25-5.11-3.38-10.52-5-15.77-13.78-15.42-32.09-25.89-50.7-34.21-29-12.37-59.85-16.58-91.39-15.55C28.51,179.28,47.58,228.18,76.17,259.11Z"/><path class="b" d="M113.4,363.58c3.68,1.7,7.31,3.52,11.07,5,3.1,1.25,6.34,2.16,9.54,3.14.42.13.62.23.68.62,2.5.4,12.52,3,15.15,3.42,1.5.22,3.74.41,5.28.46-3.06-1.11-6.9-2.21-10-3.34a111.66,111.66,0,0,1-35.8-20.9c-4.92-3.64-4.39-.67-.1-5.55,12-12.9,25.06-24.21,42.63-28.83,1.63-.43,3.35-.55,5.1-.83A101.42,101.42,0,0,1,138.34,309c-2.84-1.51-5.63-3.13-8.44-4.7a83,83,0,0,0-18.48,9.07c-6.58,4.18-12.45,9.26-18.35,14.35a86.87,86.87,0,0,0-10.71,11.42c-3.84,4.14-5.42.92,1.43,5.62,2.77,2,5.67,3.83,8.45,5.94,3.49,2.66,7.21,5,10.94,7.33,3.29,2.07,6.8,3.63,10.16,5.54Z"/><path class="c" d="M118.42,148.07l.16-.2-.31,0A1.19,1.19,0,0,0,118.42,148.07Z"/><path class="b" d="M185.28,230.6c.06.26.11.53,0,0,.3.48.15.25,0,0Z"/><path class="b" d="M105,284.35l.25.19Z"/><path class="b" d="M154.83,376.26h0Z"/><path class="b" d="M113.34,363.54l.18-.22c-.21.45-.17.36-.13.26Z"/><path class="b" d="M100.18,157.17l-.17.21.12-.26Z"/></svg>