<svg xmlns="http://www.w3.org/2000/svg" viewBox="0 0 349.16 313.91"><defs><style>.a{fill:#729d3f;}.b{fill:#80af3c;stroke:#729d3f;stroke-miterlimit:10;}</style></defs><path class="a" d="M174.8,300c-8.18,3.18-16.37,6.82-24.86,9.48a105.91,105.91,0,0,1-20.85,3.69c-10.87.83-25.36-1-29.11-1.72a116.11,116.11,0,0,1-45.73-19.64c-3.6-2.57-6.84-5.62-10.6-8.74C58,267.39,72.73,253.91,91.57,250.68c-8.69-4.79-19.6-10-29.64-16.53A125.84,125.84,0,0,1,21.31,191C7.87,167.27,2.29,132.47.62,125.87c3.24-.25,6-.57,8.77-.64,17.11-.4,34.12.56,50.92,4.07,13.66,2.86,26.91,6.91,39,14.12a80.53,80.53,0,0,1,23,21c.23.41.27.46,0,0-1-2.38-2-4.89-2.8-7.32-6.28-18.5-5.66-37.27-1.81-56.08a184.42,184.42,0,0,1,18.5-50.54A198.75,198.75,0,0,1,173.83,1l.74-.66.75.67"/><path class="a" d="M174.33,300c8.19,3.18,16.37,6.82,24.86,9.48a106.14,106.14,0,0,0,20.86,3.69c10.86.83,25.36-1,29.11-1.72a116,116,0,0,0,45.72-19.64c3.6-2.57,6.85-5.62,10.61-8.74-14.33-15.71-29.08-29.19-47.92-32.42,8.68-4.79,19.6-10,29.63-16.53A125.87,125.87,0,0,0,327.83,191c13.43-23.77,19-58.57,20.68-65.17-3.24-.25-6-.57-8.76-.64-17.11-.4-34.13.56-50.92,4.07-13.67,2.86-26.91,6.91-39,14.12a80.43,80.43,0,0,0-23,21h0c1-2.38,2-4.89,2.81-7.32,6.27-18.5,5.66-37.27,1.81-56.08a184.44,184.44,0,0,0-18.51-50.54A198.27,198.27,0,0,0,175.3,1c-.12-.12-.73-.66-.73-.66s-.47.41-.71.64"/><path class="a" d="M174.53,1.66a.5.5,0,0,0,0-1,.5.5,0,0,0,0,1Z"/><path class="a" d="M174.49,300.07a.5.5,0,0,0,0-1,.5.5,0,0,0,0,1Z"/><rect class="b" x="174.48" y="1.51" width="0.17" height="298.54" transform="translate(349.13 301.57) rotate(180)"/></svg>