<svg xmlns="http://www.w3.org/2000/svg" viewBox="0 0 612 209"><defs><style>.a,.b{stroke:#000;stroke-miterlimit:10;}.a{stroke-width:5px;}.b{stroke-width:3px;}</style></defs><path class="a" d="M49.86,126H40.77v-8.89Q26.61,116,19,108.6a24.85,24.85,0,0,1-7.83-18h11a16.71,16.71,0,0,0,5.26,11.24q4.74,4.47,13.38,5.52V71.48L35.51,70a41.23,41.23,0,0,1-8-2.92,31.25,31.25,0,0,1-6.91-4.74,20.09,20.09,0,0,1-5.07-7.18,24,24,0,0,1-1.82-9.51A24.87,24.87,0,0,1,17.39,32,24.07,24.07,0,0,1,27,23.26,39.77,39.77,0,0,1,40.77,19.4V10.11h9.09v9.16q11.76,1.11,19.52,7.92t8.14,17.93H66.87a15,15,0,0,0-4.8-10.69q-4.55-4.32-12.21-5.29V62.91l5.52,1.49q11.88,3.12,17.83,9.06T79.15,90q0,12.27-8.09,19.16t-21.2,8ZM24.4,44.86q0,9.54,12.08,14.28c1.69.57,3.12,1,4.29,1.37V29.14a21.65,21.65,0,0,0-11.89,5A13.69,13.69,0,0,0,24.4,44.86ZM68.5,90.64a13.82,13.82,0,0,0-3.57-9.77Q61.35,77,52.26,74.27c-1.08-.25-1.88-.47-2.4-.64v33.89q8.51-.76,13.57-5.09T68.5,90.64Z"/><path d="M111.31,74.21a80.39,80.39,0,0,0,14-1.2,43.65,43.65,0,0,0,12.3-4,31.59,31.59,0,0,0,9.4-7.2,22,22,0,0,0,5.1-10.8h18.6V191h-25V92.21h-34.4Z"/><path d="M284.31,191h-95.6q.19-17.4,8.4-30.4a76.81,76.81,0,0,1,22.4-22.6q6.8-5,14.2-9.7a112.1,112.1,0,0,0,13.6-10.1,54,54,0,0,0,10.2-11.7,27.7,27.7,0,0,0,4.2-14.5,39.67,39.67,0,0,0-.9-8.1,21.48,21.48,0,0,0-3.5-8,20.57,20.57,0,0,0-7.2-6.2q-4.61-2.5-12-2.5a21.66,21.66,0,0,0-11.3,2.7,20.21,20.21,0,0,0-7.2,7.4,36.94,36.94,0,0,0-4,11.1,79.67,79.67,0,0,0-1.5,13.8h-22.8a71.53,71.53,0,0,1,3.1-21.5,47.79,47.79,0,0,1,9.3-17.1,43.85,43.85,0,0,1,15.1-11.3,49,49,0,0,1,20.7-4.1q12.8,0,21.4,4.2A41.11,41.11,0,0,1,274.81,63a38.9,38.9,0,0,1,7.5,13.9,50.71,50.71,0,0,1,2.2,14.3,42.33,42.33,0,0,1-2.6,15.2,49,49,0,0,1-7,12.5,70.75,70.75,0,0,1-10,10.5q-5.6,4.8-11.6,9t-12,8q-6,3.79-11.1,7.6a65,65,0,0,0-8.9,7.9,22.38,22.38,0,0,0-5.2,8.7h68.2Z"/><path d="M348.71,48.21q15,0,24.5,6.9A47.44,47.44,0,0,1,388,72.71a78.77,78.77,0,0,1,7.2,23.5,162.8,162.8,0,0,1,0,49.6,78.77,78.77,0,0,1-7.2,23.5,47.44,47.44,0,0,1-14.8,17.6q-9.49,6.9-24.5,6.9t-24.5-6.9a47.44,47.44,0,0,1-14.8-17.6,78.77,78.77,0,0,1-7.2-23.5,162.8,162.8,0,0,1,0-49.6,78.77,78.77,0,0,1,7.2-23.5,47.44,47.44,0,0,1,14.8-17.6Q333.71,48.21,348.71,48.21Zm0,126.6a18.33,18.33,0,0,0,12.4-4.3,29.13,29.13,0,0,0,7.9-11.6,69.42,69.42,0,0,0,4.1-17.1,171.32,171.32,0,0,0,1.2-20.8,168.93,168.93,0,0,0-1.2-20.7,70.78,70.78,0,0,0-4.1-17.1,29.09,29.09,0,0,0-7.9-11.7,18.33,18.33,0,0,0-12.4-4.3q-7.6,0-12.5,4.3a29.54,29.54,0,0,0-7.8,11.7,70.78,70.78,0,0,0-4.1,17.1,168.93,168.93,0,0,0-1.2,20.7,171.32,171.32,0,0,0,1.2,20.8,69.42,69.42,0,0,0,4.1,17.1,29.58,29.58,0,0,0,7.8,11.6Q341.12,174.82,348.71,174.81Z"/><path class="b" d="M431.08,110.22h9.7l-21.6,91.9h-9.7Z"/><path class="b" d="M467.54,192.92h-9.08V138.38h9.08v9.87a26.35,26.35,0,0,1,5.3-7.08,17.61,17.61,0,0,1,5.49-3.23,18.69,18.69,0,0,1,6.35-1.07,19.81,19.81,0,0,1,6.44,1,14.52,14.52,0,0,1,5.32,3.15,21.87,21.87,0,0,1,4.45,7.18,25.82,25.82,0,0,1,5.49-7A20.26,20.26,0,0,1,512,138a16.82,16.82,0,0,1,6.08-1.1,16.42,16.42,0,0,1,8.39,2.17,14.54,14.54,0,0,1,5.79,6.18q2,4,2,13.62v34.08h-9.09V162.6q0-9.61-1.15-12.16a8.87,8.87,0,0,0-3.18-3.88,8.73,8.73,0,0,0-4.91-1.34,12.43,12.43,0,0,0-7.49,2.51,17.93,17.93,0,0,0-5.48,6.77q-2.06,4.25-2.05,11.91v26.51H491.8V162.63q0-9.6-1-12.14a8.07,8.07,0,0,0-3.35-3.91,9.47,9.47,0,0,0-4.93-1.36,12.33,12.33,0,0,0-7.3,2.59,17.47,17.47,0,0,0-5.62,6.91q-2,4.32-2,11.69Z"/><path class="b" d="M572.1,194.44a25.37,25.37,0,0,1-18.23-7.25q-7.54-7.26-7.55-21.56t7.55-21.51a26.49,26.49,0,0,1,36.42,0q7.55,7.26,7.55,21.51t-7.55,21.56A25.32,25.32,0,0,1,572.1,194.44Zm0-7.57A14.14,14.14,0,0,0,583.9,181q4.47-5.83,4.46-15.41t-4.46-15.36a14.9,14.9,0,0,0-23.64,0q-4.46,5.83-4.46,15.36T560.26,181A14.18,14.18,0,0,0,572.1,186.87Z"/></svg>