<?xml version="1.0" encoding="UTF-8"?><svg id="a" xmlns="http://www.w3.org/2000/svg" viewBox="0 0 527 209"><defs><style>.b{stroke-width:3px;}.b,.c{stroke:#000;stroke-miterlimit:10;}.c{stroke-width:5px;}</style></defs><g><path class="b" d="M348.08,108.22h9.7l-21.6,91.9h-9.7l21.6-91.9Z"/><path class="b" d="M384.54,190.92h-9.08v-54.54h9.08v9.86c1.86-3.29,3.62-5.65,5.3-7.08,1.68-1.43,3.51-2.51,5.49-3.22,1.99-.72,4.1-1.07,6.35-1.07s4.39,.35,6.45,1.05c2.05,.7,3.82,1.75,5.32,3.15,1.5,1.4,2.98,3.79,4.44,7.18,1.86-3.16,3.69-5.48,5.49-6.96,1.81-1.48,3.66-2.59,5.57-3.32s3.93-1.1,6.08-1.1c3.09,0,5.89,.72,8.4,2.17,2.51,1.45,4.44,3.51,5.79,6.18,1.35,2.67,2.03,7.21,2.03,13.62v34.08h-9.08v-30.32c0-6.41-.38-10.46-1.15-12.16-.77-1.69-1.83-2.99-3.18-3.88-1.35-.89-2.99-1.34-4.92-1.34-2.71,0-5.2,.84-7.49,2.51-2.28,1.68-4.11,3.93-5.48,6.76-1.37,2.83-2.05,6.8-2.05,11.91v26.51h-9.08v-30.29c0-6.41-.35-10.45-1.05-12.15-.7-1.69-1.81-2.99-3.34-3.9-1.53-.91-3.17-1.37-4.93-1.37-2.47,0-4.91,.86-7.3,2.59-2.39,1.73-4.26,4.03-5.62,6.91-1.35,2.88-2.03,6.78-2.03,11.69v26.51Z"/><path class="b" d="M489.1,192.44c-7.13,0-13.21-2.42-18.24-7.25s-7.54-12.02-7.54-21.56,2.51-16.67,7.54-21.51,11.11-7.25,18.24-7.25,13.16,2.42,18.19,7.25,7.54,12,7.54,21.51-2.51,16.72-7.54,21.56-11.09,7.25-18.19,7.25Zm0-7.57c4.88,0,8.81-1.94,11.79-5.83,2.98-3.89,4.47-9.02,4.47-15.41s-1.49-11.47-4.47-15.36c-2.98-3.89-6.91-5.83-11.79-5.83s-8.86,1.95-11.84,5.83c-2.98,3.89-4.47,9.01-4.47,15.36s1.49,11.52,4.47,15.41c2.98,3.89,6.93,5.83,11.84,5.83Z"/></g><path class="c" d="M50.58,123.05h-9.09v-8.9c-9.44-.74-16.7-3.58-21.79-8.54-5.09-4.96-7.7-10.94-7.83-17.96h10.98c.35,4.5,2.1,8.25,5.26,11.23,3.16,2.99,7.62,4.83,13.38,5.52v-35.91l-5.26-1.49c-2.86-.74-5.51-1.71-7.96-2.92-2.45-1.21-4.75-2.79-6.92-4.74-2.17-1.95-3.85-4.34-5.07-7.18-1.21-2.84-1.82-6.01-1.82-9.51,0-5.24,1.21-9.77,3.64-13.6,2.42-3.83,5.63-6.75,9.61-8.77,3.98-2.01,8.57-3.3,13.77-3.86V7.13h9.09v9.16c7.84,.74,14.34,3.38,19.52,7.92,5.17,4.55,7.89,10.52,8.15,17.92h-10.65c-.17-4.24-1.78-7.8-4.81-10.68-3.03-2.88-7.1-4.64-12.21-5.29V59.92l5.52,1.49c7.92,2.08,13.87,5.1,17.83,9.06,3.96,3.96,5.94,9.47,5.94,16.53,0,8.18-2.7,14.57-8.08,19.16-5.39,4.59-12.46,7.25-21.2,7.99v8.9ZM25.12,41.87c0,6.36,4.03,11.13,12.08,14.29,1.69,.56,3.12,1.02,4.29,1.36V26.15c-4.94,.65-8.9,2.31-11.88,4.97-2.99,2.66-4.48,6.25-4.48,10.75Zm44.1,45.78c0-3.94-1.19-7.2-3.57-9.77-2.38-2.58-6.6-4.77-12.66-6.59-1.08-.26-1.88-.48-2.4-.65v33.9c5.67-.52,10.2-2.22,13.57-5.1,3.38-2.88,5.07-6.81,5.07-11.79Z"/><g><path d="M158.31,193.81c-7.07,0-13.63-1-19.7-3-6.07-2-11.3-4.9-15.7-8.7-4.4-3.8-7.83-8.43-10.3-13.9-2.47-5.47-3.7-11.6-3.7-18.4,0-8.8,2.3-16.2,6.9-22.2,4.6-6,10.83-10,18.7-12v-.4c-6.4-2.4-11.3-6.1-14.7-11.1s-5.1-10.9-5.1-17.7c0-12,3.77-21.37,11.3-28.1,7.53-6.73,18.3-10.1,32.3-10.1s24.77,3.37,32.3,10.1c7.53,6.73,11.3,16.1,11.3,28.1,0,6.8-1.7,12.7-5.1,17.7-3.4,5-8.3,8.7-14.7,11.1v.4c7.87,2,14.1,6,18.7,12,4.6,6,6.9,13.4,6.9,22.2,0,6.8-1.23,12.93-3.7,18.4-2.47,5.47-5.9,10.1-10.3,13.9-4.4,3.8-9.63,6.7-15.7,8.7-6.07,2-12.63,3-19.7,3Zm0-18c7.6,0,13.93-2.27,19-6.8,5.07-4.53,7.6-10.93,7.6-19.2,0-7.73-2.53-13.77-7.6-18.1-5.07-4.33-11.4-6.5-19-6.5s-13.93,2.17-19,6.5c-5.07,4.33-7.6,10.37-7.6,18.1,0,8.27,2.53,14.67,7.6,19.2,5.07,4.53,11.4,6.8,19,6.8Zm0-109.6c-6.13,0-11.33,1.83-15.6,5.5-4.27,3.67-6.4,8.97-6.4,15.9s2.07,11.77,6.2,15.3c4.13,3.53,9.4,5.3,15.8,5.3s11.67-1.77,15.8-5.3c4.13-3.53,6.2-8.63,6.2-15.3s-2.13-12.23-6.4-15.9c-4.27-3.67-9.47-5.5-15.6-5.5Z"/><path d="M270.51,48.21c10,0,18.17,2.3,24.5,6.9,6.33,4.6,11.27,10.47,14.8,17.6,3.53,7.13,5.93,14.97,7.2,23.5,1.27,8.53,1.9,16.8,1.9,24.8s-.63,16.27-1.9,24.8c-1.27,8.53-3.67,16.37-7.2,23.5-3.54,7.13-8.47,13-14.8,17.6-6.33,4.6-14.5,6.9-24.5,6.9s-18.17-2.3-24.5-6.9c-6.33-4.6-11.27-10.47-14.8-17.6-3.53-7.13-5.93-14.97-7.2-23.5-1.27-8.53-1.9-16.8-1.9-24.8s.63-16.27,1.9-24.8c1.27-8.53,3.67-16.37,7.2-23.5,3.53-7.13,8.47-13,14.8-17.6,6.33-4.6,14.5-6.9,24.5-6.9Zm0,126.6c4.93,0,9.07-1.43,12.4-4.3,3.33-2.87,5.97-6.73,7.9-11.6,1.93-4.87,3.3-10.57,4.1-17.1,.8-6.53,1.2-13.47,1.2-20.8s-.4-14.23-1.2-20.7c-.8-6.47-2.17-12.17-4.1-17.1-1.93-4.93-4.57-8.83-7.9-11.7-3.33-2.87-7.47-4.3-12.4-4.3s-9.23,1.43-12.5,4.3c-3.27,2.87-5.87,6.77-7.8,11.7-1.93,4.93-3.3,10.63-4.1,17.1-.8,6.47-1.2,13.37-1.2,20.7s.4,14.27,1.2,20.8c.8,6.53,2.17,12.23,4.1,17.1,1.93,4.87,4.53,8.73,7.8,11.6,3.27,2.87,7.43,4.3,12.5,4.3Z"/></g></svg>