<svg xmlns="http://www.w3.org/2000/svg" viewBox="0 0 644 209"><defs><style>.a,.b{stroke:#000;stroke-miterlimit:10;}.a{stroke-width:5px;}.b{stroke-width:3px;}</style></defs><path class="a" d="M49.86,126H40.77v-8.89Q26.61,116,19,108.6a24.85,24.85,0,0,1-7.83-18h11a16.71,16.71,0,0,0,5.26,11.24q4.74,4.47,13.38,5.52V71.48L35.51,70a41.23,41.23,0,0,1-8-2.92,31.25,31.25,0,0,1-6.91-4.74,20.09,20.09,0,0,1-5.07-7.18,24,24,0,0,1-1.82-9.51A24.87,24.87,0,0,1,17.39,32,24.07,24.07,0,0,1,27,23.26,39.77,39.77,0,0,1,40.77,19.4V10.11h9.09v9.16q11.76,1.11,19.52,7.92t8.14,17.93H66.87a15,15,0,0,0-4.8-10.69q-4.55-4.32-12.21-5.29V62.91l5.52,1.49q11.88,3.12,17.83,9.06T79.15,90q0,12.27-8.09,19.16t-21.2,8ZM24.4,44.86q0,9.54,12.08,14.28c1.69.57,3.12,1,4.29,1.37V29.14a21.65,21.65,0,0,0-11.89,5A13.69,13.69,0,0,0,24.4,44.86ZM68.5,90.64a13.82,13.82,0,0,0-3.57-9.77Q61.35,77,52.26,74.27c-1.08-.25-1.88-.47-2.4-.64v33.89q8.51-.76,13.57-5.09T68.5,90.64Z"/><path d="M147.31,109a52.82,52.82,0,0,0,11.2-.8,31.17,31.17,0,0,0,10-3.5,19.64,19.64,0,0,0,7.1-6.9,20.27,20.27,0,0,0,2.7-10.8q0-9-6.1-14.4t-15.7-5.4a20.64,20.64,0,0,0-17.7,8.9,29.11,29.11,0,0,0-4.3,9.2,34.81,34.81,0,0,0-1.2,10.5h-22.8a57.79,57.79,0,0,1,3.8-18.9,47.71,47.71,0,0,1,9.3-15.1,41.23,41.23,0,0,1,14.3-10,47.79,47.79,0,0,1,19-3.6,55.09,55.09,0,0,1,16.1,2.4,47,47,0,0,1,14.2,7,33.65,33.65,0,0,1,13.9,28,34.93,34.93,0,0,1-4.8,18.5q-4.8,7.9-15,11.5v.4a28.92,28.92,0,0,1,18.7,11.9q6.7,9.5,6.7,23.1a39,39,0,0,1-4,17.9,40.6,40.6,0,0,1-10.8,13.4,49.9,49.9,0,0,1-15.8,8.5,64.16,64.16,0,0,1-40.3-.5,40.85,40.85,0,0,1-15.2-9.9,42.69,42.69,0,0,1-9.3-15.4,62.84,62.84,0,0,1-3.4-20h22.8q-.41,12.8,6.3,21.3t20.1,8.5q11.4,0,19.1-6.5t7.7-18.5q0-8.2-3.2-13a20.68,20.68,0,0,0-8.4-7.3,34,34,0,0,0-11.7-3.1,110.24,110.24,0,0,0-13.3-.4Z"/><path d="M238.51,51h72.4v20.4h-55.4l-7.2,35.6.4.4a29.14,29.14,0,0,1,11.7-7.9,39.42,39.42,0,0,1,14.1-2.7,47.05,47.05,0,0,1,18.6,3.5,38.18,38.18,0,0,1,13.8,9.8,42.67,42.67,0,0,1,8.5,14.9,57.92,57.92,0,0,1,2.9,18.6,59.44,59.44,0,0,1-2.7,17.3,47.59,47.59,0,0,1-8.6,16.2,45.89,45.89,0,0,1-15.1,12q-9.2,4.69-22,4.7a63.48,63.48,0,0,1-18.9-2.7,44.89,44.89,0,0,1-15.3-8.1,39.56,39.56,0,0,1-10.5-13.3,45.32,45.32,0,0,1-4.3-18.5h22.8q1,11.4,7.8,17.5t18,6.1a28,28,0,0,0,12.2-2.4,21.4,21.4,0,0,0,8.1-6.6,26.33,26.33,0,0,0,4.4-9.8,52.74,52.74,0,0,0,1.3-12,38.05,38.05,0,0,0-1.6-11.1,27.56,27.56,0,0,0-4.8-9.3,22.85,22.85,0,0,0-8.3-6.4,27.69,27.69,0,0,0-11.9-2.4,33.91,33.91,0,0,0-13.5,2.7q-6.3,2.7-9.1,10.1h-22.8Z"/><path d="M381.71,48.21q15,0,24.5,6.9A47.44,47.44,0,0,1,421,72.71a78.77,78.77,0,0,1,7.2,23.5,162.8,162.8,0,0,1,0,49.6,78.77,78.77,0,0,1-7.2,23.5,47.44,47.44,0,0,1-14.8,17.6q-9.49,6.9-24.5,6.9t-24.5-6.9a47.44,47.44,0,0,1-14.8-17.6,78.77,78.77,0,0,1-7.2-23.5,162.8,162.8,0,0,1,0-49.6,78.77,78.77,0,0,1,7.2-23.5,47.44,47.44,0,0,1,14.8-17.6Q366.71,48.21,381.71,48.21Zm0,126.6a18.33,18.33,0,0,0,12.4-4.3,29.13,29.13,0,0,0,7.9-11.6,69.42,69.42,0,0,0,4.1-17.1,171.32,171.32,0,0,0,1.2-20.8,168.93,168.93,0,0,0-1.2-20.7,70.78,70.78,0,0,0-4.1-17.1,29.09,29.09,0,0,0-7.9-11.7,18.33,18.33,0,0,0-12.4-4.3q-7.6,0-12.5,4.3a29.54,29.54,0,0,0-7.8,11.7,70.78,70.78,0,0,0-4.1,17.1,168.93,168.93,0,0,0-1.2,20.7,171.32,171.32,0,0,0,1.2,20.8,69.42,69.42,0,0,0,4.1,17.1,29.58,29.58,0,0,0,7.8,11.6Q374.12,174.82,381.71,174.81Z"/><path class="b" d="M463.08,110.22h9.7l-21.6,91.9h-9.7Z"/><path class="b" d="M499.54,192.92h-9.08V138.38h9.08v9.87a26.35,26.35,0,0,1,5.3-7.08,17.61,17.61,0,0,1,5.49-3.23,18.69,18.69,0,0,1,6.35-1.07,19.81,19.81,0,0,1,6.44,1,14.52,14.52,0,0,1,5.32,3.15,21.87,21.87,0,0,1,4.45,7.18,25.82,25.82,0,0,1,5.49-7A20.26,20.26,0,0,1,544,138a16.82,16.82,0,0,1,6.08-1.1,16.42,16.42,0,0,1,8.39,2.17,14.54,14.54,0,0,1,5.79,6.18q2,4,2,13.62v34.08h-9.09V162.6q0-9.61-1.15-12.16a8.87,8.87,0,0,0-3.18-3.88,8.73,8.73,0,0,0-4.91-1.34,12.43,12.43,0,0,0-7.49,2.51,17.93,17.93,0,0,0-5.48,6.77q-2.06,4.25-2.05,11.91v26.51H523.8V162.63q0-9.6-1-12.14a8.07,8.07,0,0,0-3.35-3.91,9.47,9.47,0,0,0-4.93-1.36,12.33,12.33,0,0,0-7.3,2.59,17.47,17.47,0,0,0-5.62,6.91q-2,4.32-2,11.69Z"/><path class="b" d="M604.1,194.44a25.37,25.37,0,0,1-18.23-7.25q-7.54-7.26-7.55-21.56t7.55-21.51a26.49,26.49,0,0,1,36.42,0q7.55,7.26,7.55,21.51t-7.55,21.56A25.32,25.32,0,0,1,604.1,194.44Zm0-7.57A14.14,14.14,0,0,0,615.9,181q4.47-5.83,4.46-15.41t-4.46-15.36a14.9,14.9,0,0,0-23.64,0q-4.46,5.83-4.46,15.36T592.26,181A14.18,14.18,0,0,0,604.1,186.87Z"/></svg>